<svg width="35" height="27" viewBox="0 0 35 27" fill="none" xmlns="http://www.w3.org/2000/svg">
<path d="M0 17.2046C0 16.853 0.140625 16.5278 0.421875 16.229C0.738281 15.9565 1.06787 15.8203 1.41064 15.8203H4.68018C5.05811 15.8203 5.37451 15.9565 5.62939 16.229C5.88428 16.5015 6.01172 16.8267 6.01172 17.2046C6.01172 17.6089 5.88428 17.9473 5.62939 18.2197C5.37451 18.4922 5.05811 18.6284 4.68018 18.6284H1.41064C1.03271 18.6284 0.703125 18.4878 0.421875 18.2065C0.140625 17.9165 0 17.5825 0 17.2046ZM4.68018 5.98535C4.68018 5.60742 4.80322 5.28662 5.04932 5.02295C5.36572 4.75049 5.69531 4.61426 6.03809 4.61426C6.40723 4.61426 6.72803 4.75049 7.00049 5.02295L9.30762 7.34326C9.57129 7.65088 9.70312 7.97607 9.70312 8.31885C9.70312 8.71436 9.57568 9.04395 9.3208 9.30762C9.06592 9.57129 8.7583 9.70312 8.39795 9.70312C8.05518 9.70312 7.72559 9.56689 7.40918 9.29443L5.04932 7.01367C4.80322 6.71484 4.68018 6.37207 4.68018 5.98535ZM7.48828 24.9697C7.48828 24.5742 7.62451 24.2534 7.89697 24.0073C8.14307 23.7612 8.46387 23.6382 8.85938 23.6382H12.564L16.9409 19.5249C17.0815 19.4106 17.2397 19.4106 17.4155 19.5249L21.8584 23.6382H25.7476C26.1255 23.6382 26.4463 23.77 26.71 24.0337C26.9824 24.2886 27.1187 24.6006 27.1187 24.9697C27.1187 25.3477 26.9824 25.6729 26.71 25.9453C26.4463 26.2178 26.1255 26.354 25.7476 26.354H20.9883C20.8477 26.354 20.7114 26.3188 20.5796 26.2485L17.1914 23.0581L13.8296 26.2485C13.7153 26.3188 13.5835 26.354 13.4341 26.354H8.85938C8.48145 26.354 8.15625 26.2178 7.88379 25.9453C7.62012 25.6729 7.48828 25.3477 7.48828 24.9697ZM8.79346 17.2046C8.79346 18.5669 9.0835 19.8062 9.66357 20.9224C9.69873 21.0894 9.81738 21.1729 10.0195 21.1729H12.6694C12.7749 21.1729 12.8452 21.1333 12.8804 21.0542C12.9155 20.9751 12.9067 20.8872 12.854 20.7905C11.9575 19.7095 11.5093 18.5142 11.5093 17.2046C11.5093 15.6226 12.0718 14.2778 13.1968 13.1704C14.3218 12.063 15.6753 11.5093 17.2573 11.5093C18.8306 11.5093 20.1709 12.063 21.2783 13.1704C22.3945 14.2778 22.9526 15.6226 22.9526 17.2046C22.9526 18.5229 22.5088 19.7183 21.6211 20.7905C21.5596 20.8872 21.542 20.9751 21.5684 21.0542C21.6035 21.1333 21.6782 21.1729 21.7925 21.1729H24.4688C24.6533 21.1729 24.7632 21.0894 24.7983 20.9224C25.3784 19.8413 25.6685 18.6021 25.6685 17.2046C25.6685 16.062 25.4443 14.9722 24.9961 13.9351C24.5479 12.8979 23.9458 12.0059 23.1899 11.2588C22.4429 10.5029 21.5508 9.90527 20.5137 9.46582C19.4766 9.01758 18.3911 8.79346 17.2573 8.79346C16.1147 8.79346 15.0205 9.01758 13.9746 9.46582C12.9375 9.90527 12.0366 10.5029 11.272 11.2588C10.5161 12.0059 9.91406 12.8979 9.46582 13.9351C9.01758 14.9722 8.79346 16.062 8.79346 17.2046ZM15.8599 4.61426V1.38428C15.8599 0.97998 15.9917 0.650391 16.2554 0.395508C16.519 0.131836 16.853 0 17.2573 0C17.6528 0 17.978 0.131836 18.2329 0.395508C18.4966 0.65918 18.6284 0.98877 18.6284 1.38428V4.61426C18.6284 5.01855 18.4966 5.35254 18.2329 5.61621C17.978 5.87109 17.6528 5.99854 17.2573 5.99854C16.853 5.99854 16.519 5.87109 16.2554 5.61621C15.9917 5.35254 15.8599 5.01855 15.8599 4.61426ZM24.7852 8.31885C24.7852 7.96729 24.9126 7.64209 25.1675 7.34326L27.4482 5.02295C27.7207 4.75049 28.0503 4.61426 28.437 4.61426C28.8237 4.61426 29.1489 4.75049 29.4126 5.02295C29.6763 5.28662 29.8081 5.60742 29.8081 5.98535C29.8081 6.38965 29.6851 6.73242 29.439 7.01367L27.0659 9.29443C26.7671 9.56689 26.4375 9.70312 26.0771 9.70312C25.6992 9.70312 25.3872 9.57568 25.1411 9.3208C24.9038 9.05713 24.7852 8.72314 24.7852 8.31885ZM28.4634 17.2046C28.4634 16.8267 28.5864 16.5015 28.8325 16.229C29.0874 15.9565 29.3994 15.8203 29.7686 15.8203H33.0776C33.4556 15.8203 33.7808 15.9565 34.0532 16.229C34.3257 16.5015 34.4619 16.8267 34.4619 17.2046C34.4619 17.5913 34.3257 17.9253 34.0532 18.2065C33.7808 18.4878 33.4556 18.6284 33.0776 18.6284H29.7686C29.3906 18.6284 29.0786 18.4922 28.8325 18.2197C28.5864 17.9473 28.4634 17.6089 28.4634 17.2046Z" fill="white"/>
</svg>
