<svg width="46" height="46" viewBox="0 0 46 46" fill="none" xmlns="http://www.w3.org/2000/svg">
<path d="M0 20.7539C0 23.2012 0.710938 25.3818 2.13281 27.2959C3.56836 29.1963 5.43457 30.4951 7.73145 31.1924C7.92285 31.2334 8.10059 31.1787 8.26465 31.0283L10.8076 27.8906C8.86621 27.8906 7.20508 27.1934 5.82422 25.7988C4.44336 24.4043 3.75293 22.7227 3.75293 20.7539C3.75293 18.9082 4.36816 17.3086 5.59863 15.9551C6.8291 14.5879 8.36035 13.8291 10.1924 13.6787L11.3408 13.5352C11.5732 13.5352 11.6895 13.4395 11.6895 13.248L11.8535 12.0381C12.127 9.63184 13.1387 7.64258 14.8887 6.07031C16.6523 4.48438 18.7305 3.69141 21.123 3.69141C23.5293 3.69141 25.6211 4.49121 27.3984 6.09082C29.1895 7.67676 30.1943 9.65918 30.4131 12.0381L30.5771 13.3096C30.6318 13.5557 30.7891 13.6787 31.0488 13.6787H34.5967C36.5654 13.6787 38.2402 14.3691 39.6211 15.75C41.002 17.1309 41.6924 18.7988 41.6924 20.7539C41.6924 22.5723 41.0771 24.165 39.8467 25.5322C38.6162 26.8857 37.1055 27.6719 35.3145 27.8906C35.0547 27.8906 34.6992 27.9316 34.248 28.0137C33.8242 28.0547 33.5234 28.2188 33.3457 28.5059L28.1777 34.6172C27.8633 35.0137 27.7402 35.4717 27.8086 35.9912C27.8906 36.5107 28.123 36.9277 28.5059 37.2422C28.7383 37.5156 29.1484 37.6523 29.7363 37.6523C30.3105 37.6523 30.7549 37.3994 31.0693 36.8936L35.7041 31.5615C38.4248 31.2881 40.7217 30.1123 42.5947 28.0342C44.4678 25.9561 45.4043 23.5293 45.4043 20.7539C45.4043 19.2773 45.1172 17.8691 44.543 16.5293C43.9824 15.1895 43.2168 14.041 42.2461 13.084C41.2891 12.1133 40.1406 11.3408 38.8008 10.7666C37.4746 10.1924 36.0732 9.90527 34.5967 9.90527H33.8994C33.1748 7.00684 31.623 4.63477 29.2441 2.78906C26.8789 0.929687 24.1719 0 21.123 0C19.0859 0 17.165 0.4375 15.3604 1.3125C13.5693 2.17383 12.0586 3.38379 10.8281 4.94238C9.59766 6.4873 8.77051 8.25098 8.34668 10.2334C5.88574 10.7803 3.87598 12.0381 2.31738 14.0068C0.772461 15.9619 0 18.2109 0 20.7539ZM7.40332 38.2881C7.40332 38.4248 7.44434 38.6436 7.52637 38.9443C7.71777 39.4092 8.03906 39.7305 8.49023 39.9082C8.96875 40.127 9.4541 40.1406 9.94629 39.9492C10.4385 39.7578 10.7734 39.4297 10.9512 38.9648C11.1699 38.4863 11.1836 38.0146 10.9922 37.5498C10.8008 37.085 10.4658 36.7705 9.9873 36.6064C9.49512 36.374 9.02344 36.3535 8.57227 36.5449C8.12109 36.7363 7.78613 37.0781 7.56738 37.5703C7.45801 37.8027 7.40332 38.042 7.40332 38.2881ZM11.4434 32.9561V33.1816C11.4844 33.6738 11.7031 34.084 12.0996 34.4121C12.5918 34.6855 13.043 34.8223 13.4531 34.8223C13.9453 34.8223 14.3896 34.583 14.7861 34.1045L19.8721 28.0547C20.1865 27.6719 20.3301 27.1934 20.3027 26.6191C20.248 26.1543 20.043 25.7646 19.6875 25.4502C19.3457 25.1357 18.9697 24.9785 18.5596 24.9785C18.4365 24.9785 18.334 24.9854 18.252 24.999C17.7461 25.0947 17.3359 25.334 17.0215 25.7168L11.8535 31.7871C11.5801 32.1016 11.4434 32.4912 11.4434 32.9561ZM13.2891 42.5742C13.1797 42.7793 13.125 43.0117 13.125 43.2715C13.125 43.5312 13.1797 43.7637 13.2891 43.9688C13.4668 44.4336 13.7881 44.7754 14.2529 44.9941C14.4854 45.1035 14.7246 45.1582 14.9707 45.1582C15.2441 45.1582 15.4697 45.1035 15.6475 44.9941C16.1533 44.7891 16.4951 44.4883 16.6729 44.0918C16.8916 43.6133 16.9053 43.1279 16.7139 42.6357C16.5361 42.1436 16.2148 41.8086 15.75 41.6309C15.2715 41.4121 14.7793 41.3984 14.2734 41.5898C13.7812 41.7812 13.4531 42.1094 13.2891 42.5742ZM16.7754 38.1445V38.3906C16.8301 38.8691 17.0557 39.2656 17.4521 39.5801C17.8486 39.9082 18.252 40.0723 18.6621 40.0723C19.1543 40.0723 19.6123 39.833 20.0361 39.3545L29.5518 27.8906C29.7979 27.6172 29.9209 27.2412 29.9209 26.7627V26.4961C29.8662 26.0039 29.668 25.6143 29.3262 25.3271C28.9844 25.04 28.6016 24.8965 28.1777 24.8965H27.8906C27.3848 24.9238 26.9814 25.1494 26.6807 25.5732L17.165 36.9551C16.9053 37.3379 16.7754 37.7344 16.7754 38.1445ZM24.4658 40.667C24.4658 40.8584 24.5068 41.0771 24.5889 41.3232C24.7803 41.8018 25.1152 42.1436 25.5938 42.3486C25.8945 42.4307 26.1201 42.4717 26.2705 42.4717C26.585 42.4717 26.8311 42.417 27.0088 42.3076C27.501 42.1162 27.8359 41.8086 28.0137 41.3848C28.2324 41.0156 28.2461 40.5303 28.0547 39.9287C27.877 39.4775 27.5557 39.1562 27.0908 38.9648L26.3115 38.7598C26.1201 38.8008 25.8877 38.8555 25.6143 38.9238C25.1357 39.1016 24.8076 39.4229 24.6299 39.8877C24.5205 40.1475 24.4658 40.4072 24.4658 40.667Z" fill="white" fill-opacity="0.7"/>
</svg>
