<svg width="48" height="45" viewBox="0 0 48 45" fill="none" xmlns="http://www.w3.org/2000/svg">
<path d="M0 23.584C0 23.0645 0.198242 22.6201 0.594727 22.251C0.963867 21.8818 1.41504 21.6973 1.94824 21.6973H6.45996C6.97949 21.6973 7.41699 21.8818 7.77246 22.251C8.1416 22.6201 8.32617 23.0645 8.32617 23.584C8.32617 24.1309 8.1416 24.5889 7.77246 24.958C7.41699 25.3271 6.97949 25.5117 6.45996 25.5117H1.94824C1.40137 25.5117 0.936523 25.3271 0.553711 24.958C0.18457 24.5889 0 24.1309 0 23.584ZM6.39844 8.24414C6.39844 7.73828 6.57617 7.28711 6.93164 6.89062C7.3418 6.52148 7.82031 6.33691 8.36719 6.33691C8.83203 6.33691 9.2627 6.52148 9.65918 6.89062L12.8379 10.1309C13.207 10.4727 13.3916 10.9102 13.3916 11.4434C13.3916 11.9629 13.207 12.4072 12.8379 12.7764C12.4824 13.1318 12.0518 13.3096 11.5459 13.3096C10.9854 13.3096 10.541 13.125 10.2129 12.7559L6.93164 9.59766C6.57617 9.21484 6.39844 8.76367 6.39844 8.24414ZM12.0996 23.584C12.0996 22.0391 12.4072 20.5557 13.0225 19.1338C13.6514 17.6982 14.4854 16.4678 15.5244 15.4424C16.5771 14.4033 17.8213 13.5762 19.2568 12.9609C20.6924 12.332 22.1895 12.0176 23.748 12.0176C25.8398 12.0176 27.7812 12.5439 29.5723 13.5967C31.3633 14.6357 32.7783 16.0439 33.8174 17.8213C34.8564 19.5986 35.376 21.5195 35.376 23.584C35.376 23.9121 35.3555 24.2197 35.3145 24.5068C34.6992 24.1377 33.9951 23.9531 33.2021 23.9531C32.6689 23.9531 32.1426 24.0625 31.623 24.2812C31.6367 24.1309 31.6436 23.8984 31.6436 23.584C31.6436 21.4512 30.8711 19.6328 29.3262 18.1289C27.7812 16.6113 25.9219 15.8525 23.748 15.8525C21.5879 15.8525 19.7354 16.6113 18.1904 18.1289C16.6592 19.6328 15.8936 21.4512 15.8936 23.584V23.9736C15.251 24.0146 14.6357 24.1992 14.0479 24.5273C14.0342 24.541 13.959 24.5957 13.8223 24.6914C13.6855 24.7871 13.5488 24.8896 13.4121 24.999C13.2754 25.0947 13.1045 25.2314 12.8994 25.4092C12.6943 25.5732 12.5029 25.7441 12.3252 25.9219C12.1748 25.2246 12.0996 24.4453 12.0996 23.584ZM12.1611 31.582V31.2539C12.1475 31.0488 12.1611 30.8096 12.2021 30.5361C12.3115 29.7568 12.6191 29.0117 13.125 28.3008C13.4121 27.9453 13.6104 27.7197 13.7197 27.624C13.7334 27.583 13.7607 27.542 13.8018 27.501C13.8428 27.46 13.8701 27.4326 13.8838 27.4189C13.9385 27.3916 14.0273 27.3164 14.1504 27.1934C14.1914 27.1387 14.2461 27.084 14.3145 27.0293C14.3965 26.9746 14.4512 26.9336 14.4785 26.9062C14.5879 26.7969 14.6904 26.7217 14.7861 26.6807L15.1553 26.4346C15.4697 26.2295 15.832 26.127 16.2422 26.127H16.3037C16.5225 26.127 16.7139 26.1475 16.8779 26.1885C16.9463 26.2158 17.042 26.2637 17.165 26.332V26.3525C17.4795 26.4893 17.7256 26.7012 17.9033 26.9883C18.0947 27.2617 18.1904 27.5625 18.1904 27.8906C18.1904 28.2598 18.0879 28.5674 17.8828 28.8135C17.7461 29.0049 17.582 29.1758 17.3906 29.3262C17.3496 29.3398 17.3018 29.3604 17.2471 29.3877C17.2061 29.415 17.1787 29.4287 17.165 29.4287L17.042 29.5107C16.96 29.5791 16.8848 29.6406 16.8164 29.6953C16.7617 29.75 16.6865 29.832 16.5908 29.9414C16.4951 30.0371 16.4131 30.1328 16.3447 30.2285C16.2764 30.3242 16.208 30.4404 16.1396 30.5771C16.085 30.7002 16.0508 30.8232 16.0371 30.9463V31.2334V31.2744C16.1191 31.6025 16.2012 31.8623 16.2832 32.0537C16.4336 32.3545 16.6797 32.6758 17.0215 33.0176C17.0488 33.0586 17.2266 33.2432 17.5547 33.5713C19.4414 35.2803 20.3232 37.1055 20.2002 39.0469C20.1592 39.7031 20.002 40.332 19.7285 40.9336C19.4688 41.5488 19.1611 42.0615 18.8057 42.4717C18.4502 42.8955 18.1631 43.21 17.9443 43.415C17.7256 43.6201 17.541 43.7705 17.3906 43.8662C17.377 43.8799 17.3359 43.9072 17.2676 43.9482C17.1992 44.0029 17.1445 44.0371 17.1035 44.0508C16.9258 44.1328 16.7686 44.1807 16.6318 44.1943C16.4404 44.2217 16.2969 44.2354 16.2012 44.2354C15.5449 44.2354 15.0254 44.0166 14.6426 43.5791C14.3281 43.1963 14.1982 42.7656 14.2529 42.2871C14.3076 41.8086 14.5469 41.4189 14.9707 41.1182L15.0117 41.0771C15.0391 41.0498 15.0732 41.0156 15.1143 40.9746C15.1553 40.9473 15.2031 40.9062 15.2578 40.8516C15.3262 40.7969 15.3877 40.7354 15.4424 40.667C15.5107 40.5986 15.5723 40.5234 15.627 40.4414C15.6953 40.3594 15.7568 40.2705 15.8115 40.1748C15.8799 40.0928 15.9414 39.9971 15.9961 39.8877C16.0645 39.7783 16.1191 39.6689 16.1602 39.5596C16.2012 39.4502 16.2354 39.3271 16.2627 39.1904C16.29 39.0674 16.3037 38.9443 16.3037 38.8213C16.3447 38.3838 16.2354 37.9463 15.9756 37.5088C15.8662 37.2764 15.7021 37.0371 15.4834 36.791C15.333 36.6133 15.2236 36.4971 15.1553 36.4424C14.9502 36.1963 14.8408 36.0664 14.8271 36.0527C14.7861 36.0254 14.7314 35.9844 14.6631 35.9297C14.6084 35.875 14.5674 35.8408 14.54 35.8271C14.2119 35.5264 13.9658 35.2666 13.8018 35.0479C13.5283 34.7061 13.3506 34.4736 13.2686 34.3506C12.8447 33.7764 12.5576 33.209 12.4072 32.6484C12.3115 32.334 12.2568 32.1016 12.2432 31.9512C12.2432 31.9102 12.2295 31.8555 12.2021 31.7871C12.1748 31.7051 12.1611 31.6367 12.1611 31.582ZM20.6514 30.8438C20.6514 30.7207 20.6582 30.6182 20.6719 30.5361C20.7266 30.0576 20.8701 29.5928 21.1025 29.1416C21.335 28.6768 21.5879 28.2871 21.8613 27.9727C22.1484 27.6582 22.4219 27.3848 22.6816 27.1523C22.9551 26.9062 23.1875 26.7217 23.3789 26.5986L23.6455 26.4346C23.9736 26.2295 24.3359 26.127 24.7324 26.127C24.9785 26.127 25.1973 26.1475 25.3887 26.1885C25.4023 26.1885 25.4365 26.209 25.4912 26.25C25.5596 26.2773 25.6074 26.3047 25.6348 26.332C25.6621 26.332 25.6826 26.3389 25.6963 26.3525C25.71 26.3525 25.7646 26.3867 25.8604 26.4551C26.2979 26.7148 26.5713 27.1113 26.6807 27.6445C26.6807 27.6855 26.6807 27.7334 26.6807 27.7881C26.6943 27.8428 26.7012 27.877 26.7012 27.8906C26.7012 27.959 26.6875 28.0479 26.6602 28.1572C26.6328 28.2529 26.6191 28.3145 26.6191 28.3418C26.4688 28.834 26.1611 29.1963 25.6963 29.4287C24.9717 29.9072 24.5889 30.4131 24.5479 30.9463C24.5342 31.124 24.5342 31.2812 24.5479 31.418C24.6025 31.6777 24.7256 31.9648 24.917 32.2793C25.1631 32.6348 25.3408 32.8672 25.4502 32.9766C25.792 33.3184 25.9971 33.5166 26.0654 33.5713C26.3389 33.8174 26.6807 34.1865 27.0908 34.6787C28.2803 36.1006 28.8203 37.5566 28.7109 39.0469C28.6699 39.7031 28.5127 40.3389 28.2393 40.9541C27.9795 41.5693 27.6719 42.0752 27.3164 42.4717C26.9609 42.8818 26.667 43.1963 26.4346 43.415C26.2021 43.6338 26.0176 43.7842 25.8809 43.8662L25.6143 44.0508C25.3818 44.1328 25.2314 44.1807 25.1631 44.1943C24.917 44.2217 24.7734 44.2354 24.7324 44.2354H24.6709C24.4932 44.2354 24.3564 44.2217 24.2607 44.1943C24.2197 44.1943 24.1582 44.1807 24.0762 44.1533C24.0078 44.1396 23.96 44.1328 23.9326 44.1328C23.9189 44.1328 23.8984 44.126 23.8711 44.1123C23.8438 44.0986 23.8164 44.0781 23.7891 44.0508C23.7617 44.0371 23.7412 44.0303 23.7275 44.0303C23.3994 43.7979 23.208 43.6475 23.1533 43.5791C22.8115 43.1826 22.6748 42.7451 22.7432 42.2666C22.8115 41.8018 23.0576 41.4189 23.4814 41.1182L23.543 41.0361C23.5977 40.9951 23.6592 40.9336 23.7275 40.8516C23.8096 40.7832 23.8984 40.7012 23.9941 40.6055C24.0898 40.5098 24.1787 40.3936 24.2607 40.2568C24.3564 40.1201 24.4453 39.9766 24.5273 39.8262C24.6094 39.6895 24.6709 39.5322 24.7119 39.3545C24.7666 39.1768 24.8008 38.999 24.8145 38.8213C24.8418 37.9463 24.3359 37.0234 23.2969 36.0527C22.8867 35.6836 22.5654 35.3691 22.333 35.1094C21.1162 33.6738 20.5557 32.252 20.6514 30.8438ZM21.8408 6.43945V1.90723C21.8408 1.37402 22.0254 0.922852 22.3945 0.553711C22.7773 0.18457 23.2285 0 23.748 0C24.2812 0 24.7324 0.18457 25.1016 0.553711C25.4707 0.922852 25.6553 1.37402 25.6553 1.90723V6.43945C25.6553 6.95898 25.4707 7.38965 25.1016 7.73145C24.7324 8.07324 24.2812 8.24414 23.748 8.24414C23.2285 8.24414 22.7773 8.07324 22.3945 7.73145C22.0254 7.38965 21.8408 6.95898 21.8408 6.43945ZM29.1826 30.5361C29.2373 30.0576 29.3809 29.5928 29.6133 29.1416C29.8457 28.6768 30.0986 28.2871 30.3721 27.9727C30.6592 27.6582 30.9326 27.3848 31.1924 27.1523C31.4658 26.9062 31.6914 26.7217 31.8691 26.5986L32.1562 26.4346C32.2109 26.3936 32.2861 26.3389 32.3818 26.2705C32.6279 26.1748 32.9014 26.127 33.2021 26.127C33.9404 26.127 34.501 26.4072 34.8838 26.9678C34.9932 27.1182 35.0684 27.2822 35.1094 27.46C35.1367 27.5146 35.1504 27.5762 35.1504 27.6445V27.8906C35.1504 28.5742 34.8223 29.0869 34.166 29.4287C33.4688 29.8936 33.0859 30.3994 33.0176 30.9463C32.9355 31.6846 33.4346 32.5596 34.5146 33.5713C36.4287 35.2666 37.3242 37.0918 37.2012 39.0469C37.1602 39.7031 37.0029 40.332 36.7295 40.9336C36.4697 41.5488 36.1553 42.0615 35.7861 42.4717C35.4307 42.8955 35.1436 43.21 34.9248 43.415C34.7197 43.6201 34.542 43.7705 34.3916 43.8662C34.0361 44.085 33.7354 44.2012 33.4893 44.2148C33.4209 44.2285 33.3115 44.2354 33.1611 44.2354C32.5049 44.2354 31.999 44.0166 31.6436 43.5791C31.3154 43.1963 31.1787 42.7656 31.2334 42.2871C31.2881 41.8086 31.5205 41.4189 31.9307 41.1182C31.999 41.0908 32.1289 40.9883 32.3203 40.8105C32.5117 40.6328 32.7168 40.3525 32.9355 39.9697C33.168 39.5869 33.2979 39.2041 33.3252 38.8213C33.3662 37.9463 32.8535 37.0234 31.7871 36.0527C30.8848 35.2598 30.2012 34.4121 29.7363 33.5098C29.2441 32.5527 29.0596 31.5615 29.1826 30.5361ZM34.1865 11.4434C34.1865 10.8965 34.3506 10.459 34.6787 10.1309L37.8779 6.89062C38.2744 6.52148 38.7188 6.33691 39.2109 6.33691C39.7305 6.33691 40.1748 6.52832 40.5439 6.91113C40.9268 7.28027 41.1182 7.72461 41.1182 8.24414C41.1182 8.79102 40.9268 9.24219 40.5439 9.59766L37.3037 12.7559C36.9072 13.125 36.4629 13.3096 35.9707 13.3096C35.4648 13.3096 35.041 13.1318 34.6992 12.7764C34.3574 12.4072 34.1865 11.9629 34.1865 11.4434ZM39.2314 23.584C39.2314 23.1055 39.4229 22.6611 39.8057 22.251C40.1475 21.8818 40.5713 21.6973 41.0771 21.6973H45.5889C46.1084 21.6973 46.5596 21.8887 46.9424 22.2715C47.3389 22.6406 47.5371 23.0781 47.5371 23.584C47.5371 24.1172 47.3457 24.5752 46.9629 24.958C46.5801 25.3271 46.1221 25.5117 45.5889 25.5117H41.0771C40.5439 25.5117 40.0996 25.3271 39.7441 24.958C39.4023 24.5889 39.2314 24.1309 39.2314 23.584Z" fill="white" fill-opacity="0.7"/>
</svg>
