<svg width="49" height="42" viewBox="0 0 49 42" fill="none" xmlns="http://www.w3.org/2000/svg">
<path d="M0 16.7344C0 14.7109 0.628906 12.8994 1.88672 11.2998C3.1582 9.7002 4.75781 8.68164 6.68555 8.24414C7.24609 5.83789 8.4834 3.8623 10.3975 2.31738C12.3252 0.772461 14.5264 0 17.001 0C19.4072 0 21.5537 0.758789 23.4404 2.27637C25.3408 3.78027 26.5713 5.70801 27.1318 8.05957H27.7061C30.1123 8.05957 32.1631 8.90723 33.8584 10.6025C35.5674 12.2842 36.4219 14.3281 36.4219 16.7344C36.4219 16.748 36.415 16.7754 36.4014 16.8164C36.4014 16.8574 36.4014 16.8984 36.4014 16.9395C38.042 18.6895 38.8623 20.7676 38.8623 23.1738C38.8623 24.8281 38.4453 26.3662 37.6113 27.7881C36.791 29.1963 35.6768 30.3105 34.2686 31.1309C32.874 31.9512 31.3564 32.3613 29.7158 32.3613C27.6104 32.3613 25.7373 31.7119 24.0967 30.4131C22.4697 29.1143 21.3965 27.4668 20.877 25.4707H8.3877C6.0498 25.375 4.06738 24.4863 2.44043 22.8047C0.813477 21.1094 0 19.0859 0 16.7344ZM2.97363 16.7344C2.97363 18.2656 3.5 19.5986 4.55273 20.7334C5.61914 21.8545 6.89746 22.4492 8.3877 22.5176H20.7949C20.877 22.4629 20.959 22.4355 21.041 22.4355H23.1738C23.2422 22.4355 23.3037 22.4629 23.3584 22.5176H28.0547C29.5449 22.4492 30.8232 21.8545 31.8896 20.7334C32.9561 19.5986 33.4893 18.2656 33.4893 16.7344C33.4893 15.1895 32.915 13.8564 31.7666 12.7354C30.6182 11.6006 29.2646 11.0332 27.7061 11.0332H24.876C24.6709 11.0332 24.5684 10.9307 24.5684 10.7256L24.4248 9.7002C24.2334 7.7998 23.4199 6.20703 21.9844 4.92188C20.5488 3.62305 18.8877 2.97363 17.001 2.97363C15.0596 2.97363 13.3779 3.61621 11.9561 4.90137C10.5342 6.18652 9.72754 7.78613 9.53613 9.7002L9.41309 10.7256C9.41309 10.9307 9.29688 11.0332 9.06445 11.0332H8.18262C6.70605 11.1973 5.46875 11.8193 4.4707 12.8994C3.47266 13.9795 2.97363 15.2578 2.97363 16.7344ZM16.5293 36.4424C15.9824 35.7314 15.9824 35.0205 16.5293 34.3096L19.0107 31.7871C19.3115 31.5273 19.6875 31.3975 20.1387 31.3975C20.5488 31.3975 20.8838 31.5273 21.1436 31.7871C21.4033 32.0469 21.5332 32.3887 21.5332 32.8125C21.5332 33.25 21.4033 33.5986 21.1436 33.8584L18.6416 36.4424C18.3682 36.7158 18.0127 36.8525 17.5752 36.8525C17.1514 36.8525 16.8027 36.7158 16.5293 36.4424ZM23.9531 25.4707C24.418 26.6465 25.1699 27.5967 26.209 28.3213C27.2617 29.0459 28.4307 29.4082 29.7158 29.4082C31.4111 29.4082 32.8467 28.7998 34.0225 27.583C35.2119 26.3662 35.8066 24.8965 35.8066 23.1738C35.8066 22.3262 35.6699 21.5605 35.3965 20.877C34.6719 22.2168 33.6533 23.3037 32.3408 24.1377C31.042 24.9717 29.6133 25.416 28.0547 25.4707H23.9531ZM28.2188 36.8115C28.2188 36.4014 28.3623 36.0596 28.6494 35.7861C28.9502 35.5127 29.3057 35.376 29.7158 35.376C30.1123 35.376 30.4746 35.5264 30.8027 35.8271C31.0762 36.1006 31.2129 36.4287 31.2129 36.8115V40.4004C31.2129 40.8105 31.0625 41.166 30.7617 41.4668C30.4746 41.7676 30.126 41.918 29.7158 41.918C29.3057 41.918 28.9502 41.7676 28.6494 41.4668C28.3623 41.166 28.2188 40.8105 28.2188 40.4004V36.8115ZM37.8574 32.8125C37.8574 32.416 37.9941 32.0811 38.2676 31.8076C38.5547 31.5342 38.9033 31.3975 39.3135 31.3975C39.7373 31.3975 40.0791 31.5273 40.3389 31.7871L42.9229 34.3096C43.21 34.624 43.3535 34.9727 43.3535 35.3555C43.3535 35.7656 43.2031 36.1143 42.9023 36.4014C42.6152 36.7021 42.2598 36.8525 41.8359 36.8525C41.3848 36.8525 41.0225 36.7158 40.749 36.4424L38.2676 33.8584C37.9941 33.5439 37.8574 33.1953 37.8574 32.8125ZM38.2676 14.6016C37.9941 14.3145 37.8574 13.959 37.8574 13.5352C37.8574 13.1113 37.9941 12.7695 38.2676 12.5098L40.749 9.92578C41.0498 9.65234 41.4121 9.51562 41.8359 9.51562C42.2461 9.51562 42.6084 9.65234 42.9229 9.92578C43.21 10.2539 43.3535 10.623 43.3535 11.0332C43.3535 11.416 43.21 11.7646 42.9229 12.0791L40.3389 14.6016C40.0654 14.875 39.7236 15.0117 39.3135 15.0117C38.9033 15.0117 38.5547 14.875 38.2676 14.6016ZM41.8359 23.1738C41.8359 22.7637 41.9727 22.415 42.2461 22.1279C42.5195 21.8408 42.8613 21.6973 43.2715 21.6973H46.8193C47.2432 21.6973 47.6055 21.8408 47.9062 22.1279C48.207 22.415 48.3574 22.7637 48.3574 23.1738C48.3574 23.5977 48.207 23.96 47.9062 24.2607C47.6055 24.5479 47.2432 24.6914 46.8193 24.6914H43.2715C42.8613 24.6914 42.5195 24.5479 42.2461 24.2607C41.9727 23.96 41.8359 23.5977 41.8359 23.1738Z" fill="white" fill-opacity="0.7"/>
</svg>
