<svg width="293" height="39" viewBox="0 0 293 39" fill="none" xmlns="http://www.w3.org/2000/svg">
<path d="M10.928 1.672C14.608 1.672 17.536 2.424 19.712 3.928C21.888 5.4 22.976 7.608 22.976 10.552C22.976 12.344 22.592 13.896 21.824 15.208C21.088 16.52 20.064 17.576 18.752 18.376C20.576 19.24 22.016 20.376 23.072 21.784C24.128 23.16 24.656 24.76 24.656 26.584C24.656 28.504 24.304 30.136 23.6 31.48C22.928 32.792 22 33.864 20.816 34.696C19.664 35.496 18.352 36.088 16.88 36.472C15.408 36.824 13.888 37 12.32 37H0.56V1.672H10.928ZM11.744 16.12C13.12 16.12 14.128 15.704 14.768 14.872C15.44 14.04 15.776 13.096 15.776 12.04C15.776 10.824 15.36 9.912 14.528 9.304C13.728 8.696 12.64 8.392 11.264 8.392H7.52V16.12H11.744ZM11.984 30.52C13.52 30.52 14.816 30.216 15.872 29.608C16.928 28.968 17.456 27.96 17.456 26.584C17.456 25.56 17.168 24.792 16.592 24.28C16.016 23.736 15.264 23.368 14.336 23.176C13.44 22.952 12.496 22.84 11.504 22.84H7.52V30.52H11.984ZM61.3501 1.672V37H54.3901V22.648H38.5981V37H31.6381V1.672H38.5981V15.928H54.3901V1.672H61.3501ZM81.1546 1.672C85.6026 1.672 89.0106 2.76 91.3786 4.936C93.7786 7.08 94.9786 9.96 94.9786 13.576C94.9786 15.592 94.5466 17.576 93.6826 19.528C92.8506 21.48 91.4266 23.032 89.4106 24.184L97.6186 37H89.5066L82.0666 25.768H77.4106V37H70.4506V1.672H81.1546ZM82.3546 19.048C83.7626 19.048 84.8506 18.76 85.6186 18.184C86.4186 17.576 86.9786 16.872 87.2986 16.072C87.6186 15.24 87.7786 14.488 87.7786 13.816C87.7786 13.432 87.7146 12.952 87.5866 12.376C87.4906 11.768 87.2666 11.16 86.9146 10.552C86.5626 9.944 86.0186 9.432 85.2826 9.016C84.5786 8.6 83.6186 8.392 82.4026 8.392H77.4106V19.048H82.3546ZM99.9781 19.384C99.9781 16.952 100.442 14.648 101.37 12.472C102.298 10.296 103.578 8.376 105.21 6.712C106.874 5.016 108.794 3.688 110.97 2.728C113.146 1.768 115.482 1.288 117.978 1.288C120.442 1.288 122.762 1.768 124.938 2.728C127.114 3.688 129.034 5.016 130.698 6.712C132.394 8.376 133.706 10.296 134.634 12.472C135.594 14.648 136.074 16.952 136.074 19.384C136.074 21.88 135.594 24.216 134.634 26.392C133.706 28.568 132.394 30.488 130.698 32.152C129.034 33.784 127.114 35.064 124.938 35.992C122.762 36.92 120.442 37.384 117.978 37.384C115.482 37.384 113.146 36.92 110.97 35.992C108.794 35.064 106.874 33.784 105.21 32.152C103.578 30.488 102.298 28.568 101.37 26.392C100.442 24.216 99.9781 21.88 99.9781 19.384ZM107.178 19.384C107.178 21.464 107.658 23.368 108.618 25.096C109.61 26.792 110.938 28.152 112.602 29.176C114.266 30.168 116.138 30.664 118.218 30.664C120.234 30.664 122.042 30.168 123.642 29.176C125.274 28.152 126.554 26.792 127.482 25.096C128.41 23.368 128.874 21.464 128.874 19.384C128.874 17.24 128.394 15.32 127.434 13.624C126.474 11.896 125.178 10.536 123.546 9.544C121.914 8.52 120.074 8.008 118.026 8.008C115.978 8.008 114.138 8.52 112.506 9.544C110.874 10.536 109.578 11.896 108.618 13.624C107.658 15.32 107.178 17.24 107.178 19.384ZM143.013 37V0.231998H143.061L160.965 25.624L179.301 0.231998H179.397V37H172.437V20.152L160.917 36.52H160.821L149.733 21.208V37H143.013ZM184.545 37L200.481 0.279998H200.865L216.801 37H208.737L206.001 30.088H194.289L191.409 37H184.545ZM196.737 24.232H203.697L200.289 15.64L196.737 24.232ZM217.4 19.384C217.4 16.952 217.864 14.648 218.792 12.472C219.72 10.296 221 8.376 222.632 6.712C224.296 5.016 226.216 3.688 228.392 2.728C230.568 1.768 232.904 1.288 235.4 1.288C237.864 1.288 240.184 1.768 242.36 2.728C244.536 3.688 246.456 5.016 248.12 6.712C249.816 8.376 251.128 10.296 252.056 12.472C253.016 14.648 253.496 16.952 253.496 19.384C253.496 21.88 253.016 24.216 252.056 26.392C251.128 28.568 249.816 30.488 248.12 32.152C246.456 33.784 244.536 35.064 242.36 35.992C240.184 36.92 237.864 37.384 235.4 37.384C232.904 37.384 230.568 36.92 228.392 35.992C226.216 35.064 224.296 33.784 222.632 32.152C221 30.488 219.72 28.568 218.792 26.392C217.864 24.216 217.4 21.88 217.4 19.384ZM224.6 19.384C224.6 21.464 225.08 23.368 226.04 25.096C227.032 26.792 228.36 28.152 230.024 29.176C231.688 30.168 233.56 30.664 235.64 30.664C237.656 30.664 239.464 30.168 241.064 29.176C242.696 28.152 243.976 26.792 244.904 25.096C245.832 23.368 246.296 21.464 246.296 19.384C246.296 17.24 245.816 15.32 244.856 13.624C243.896 11.896 242.6 10.536 240.968 9.544C239.336 8.52 237.496 8.008 235.448 8.008C233.4 8.008 231.56 8.52 229.928 9.544C228.296 10.536 227 11.896 226.04 13.624C225.08 15.32 224.6 17.24 224.6 19.384ZM292.067 38.44L267.347 16.12L267.491 37H260.435V0.279998H260.723L285.395 22.936L285.251 1.672H292.259V38.44H292.067Z" fill="white"/>
</svg>
