<svg width="59" height="46" viewBox="0 0 59 46" fill="none" xmlns="http://www.w3.org/2000/svg">
<path d="M0 34.9863C0 36.9551 0.478516 38.7734 1.43555 40.4414C2.40625 42.1094 3.71875 43.4287 5.37305 44.3994C7.02734 45.3564 8.83203 45.835 10.7871 45.835H34.4736C36.4287 45.835 38.2402 45.3564 39.9082 44.3994C41.5762 43.4287 42.8955 42.1094 43.8662 40.4414C44.8369 38.7734 45.3223 36.9551 45.3223 34.9863C45.3223 33.5371 45.0146 32.0811 44.3994 30.6182C46.0674 28.5811 46.9014 26.168 46.9014 23.3789C46.9014 21.8203 46.6006 20.3369 45.999 18.9287C45.3975 17.5068 44.584 16.2832 43.5586 15.2578C42.5332 14.2324 41.3096 13.4189 39.8877 12.8174C38.4795 12.2158 36.9961 11.915 35.4375 11.915C32.1973 11.915 29.3672 13.1865 26.9473 15.7295C25.252 14.7725 23.2832 14.2939 21.041 14.2939C17.9648 14.2939 15.2441 15.251 12.8789 17.165C10.5137 19.0654 8.99609 21.5059 8.32617 24.4863C5.87891 25.0469 3.87598 26.3047 2.31738 28.2598C0.772461 30.2148 0 32.457 0 34.9863ZM3.73242 34.9863C3.73242 33.1543 4.34082 31.5752 5.55762 30.249C6.78809 28.9229 8.32617 28.1504 10.1719 27.9316L11.2588 27.8701C11.5322 27.8701 11.6689 27.7402 11.6689 27.4805L11.8125 26.291C12.1133 23.9258 13.1387 21.9502 14.8887 20.3643C16.6387 18.7646 18.6895 17.9648 21.041 17.9648C23.4473 17.9648 25.5391 18.7646 27.3164 20.3643C29.1074 21.9639 30.1123 23.9395 30.3311 26.291L30.4951 27.5625C30.5498 27.8086 30.7002 27.9316 30.9463 27.9316H34.4736C36.4014 27.9316 38.0625 28.6289 39.457 30.0234C40.8516 31.418 41.5488 33.0723 41.5488 34.9863C41.5488 36.9688 40.8516 38.6641 39.457 40.0723C38.0762 41.4668 36.415 42.1641 34.4736 42.1641H10.7871C8.87305 42.1641 7.21875 41.46 5.82422 40.0518C4.42969 38.6299 3.73242 36.9414 3.73242 34.9863ZM18.3955 8.1416C18.3955 8.6748 18.5732 9.13281 18.9287 9.51562L20.3643 10.9102C20.9111 11.3203 21.376 11.5049 21.7588 11.4639C22.21 11.4639 22.6133 11.2793 22.9688 10.9102C23.3242 10.5273 23.502 10.0693 23.502 9.53613C23.502 9.00293 23.3105 8.57227 22.9277 8.24414L21.6357 6.80859C21.2393 6.45313 20.7949 6.27539 20.3027 6.27539C19.7695 6.27539 19.3184 6.45996 18.9492 6.8291C18.5801 7.18457 18.3955 7.62207 18.3955 8.1416ZM30.085 17.8213C31.6025 16.3584 33.3867 15.627 35.4375 15.627C37.5977 15.627 39.4297 16.3789 40.9336 17.8828C42.4512 19.3867 43.21 21.2188 43.21 23.3789C43.21 24.7461 42.8408 26.0859 42.1025 27.3984C39.9834 25.3066 37.4404 24.2607 34.4736 24.2607H33.7764C33.2295 21.8818 31.999 19.7354 30.085 17.8213ZM33.6328 6.27539C33.6328 6.83594 33.8037 7.28711 34.1455 7.62891C34.4873 7.9707 34.918 8.1416 35.4375 8.1416C35.998 8.1416 36.4492 7.9707 36.791 7.62891C37.1328 7.28711 37.3037 6.83594 37.3037 6.27539V1.80469C37.3037 1.28516 37.126 0.854492 36.7705 0.512695C36.4287 0.170898 35.9844 0 35.4375 0C34.918 0 34.4873 0.170898 34.1455 0.512695C33.8037 0.854492 33.6328 1.28516 33.6328 1.80469V6.27539ZM45.7119 11.2998C45.7119 11.8604 45.876 12.3115 46.2041 12.6533C46.6689 13.0088 47.1201 13.1865 47.5576 13.1865C47.9541 13.1865 48.3848 13.0088 48.8496 12.6533L51.9873 9.51562C52.3428 9.11914 52.5205 8.6543 52.5205 8.12109C52.5205 7.60156 52.3428 7.16406 51.9873 6.80859C51.6318 6.45313 51.2012 6.27539 50.6953 6.27539C50.1758 6.27539 49.752 6.45313 49.4238 6.80859L46.2041 9.94629C45.876 10.3428 45.7119 10.7939 45.7119 11.2998ZM47.9883 35.8682C47.6328 36.2236 47.4551 36.6611 47.4551 37.1807C47.4551 37.7002 47.6396 38.1582 48.0088 38.5547L49.4238 39.9287C49.752 40.2842 50.1758 40.4619 50.6953 40.4619C51.2148 40.4619 51.6455 40.2842 51.9873 39.9287C52.3428 39.5596 52.5205 39.1016 52.5205 38.5547C52.5205 38.0625 52.3428 37.6387 51.9873 37.2832L50.5723 35.8682C50.2168 35.5127 49.7998 35.335 49.3213 35.335C48.8018 35.335 48.3574 35.5127 47.9883 35.8682ZM51.208 22.0664C50.8389 22.4355 50.6543 22.873 50.6543 23.3789C50.6543 23.8848 50.8457 24.3086 51.2285 24.6504C51.584 25.0059 52.0283 25.1836 52.5615 25.1836H57.0322C57.5381 25.1836 57.9551 25.0127 58.2832 24.6709C58.625 24.3291 58.7959 23.8984 58.7959 23.3789C58.7959 22.8594 58.625 22.4219 58.2832 22.0664C57.9551 21.6973 57.5381 21.5127 57.0322 21.5127H52.5615C52.042 21.5127 51.5908 21.6973 51.208 22.0664Z" fill="white" fill-opacity="0.7"/>
</svg>
