<svg width="48" height="48" viewBox="0 0 48 48" fill="none" xmlns="http://www.w3.org/2000/svg">
<path d="M0 23.1738V23.1533V23.1328C0 20.6035 0.786133 18.3477 2.3584 16.3652C3.94434 14.3828 5.94727 13.1113 8.36719 12.5508C9.03711 9.55664 10.5684 7.10254 12.9609 5.18848C15.3672 3.26074 18.1221 2.29688 21.2256 2.29688C23.3994 2.29688 25.3818 2.77539 27.1729 3.73242C28.2666 2.57031 29.5518 1.66113 31.0283 1.00488C32.5049 0.334961 34.0293 0 35.6016 0C37.6797 0 39.6006 0.519531 41.3643 1.55859C43.1416 2.58398 44.543 3.98535 45.5684 5.7627C46.6074 7.52637 47.127 9.44727 47.127 11.5254C47.127 14.2188 46.293 16.6182 44.625 18.7236C45.2539 20.0635 45.5684 21.5332 45.5684 23.1328C45.5684 25.0605 45.1035 26.8516 44.1738 28.5059C43.2441 30.1465 41.9727 31.4658 40.3594 32.4639C38.7598 33.4482 36.9961 33.9678 35.0684 34.0225C34.7812 34.0225 34.6377 33.8994 34.6377 33.6533V30.7207C34.6377 30.4609 34.7812 30.3311 35.0684 30.3311C36.9414 30.2354 38.5273 29.4902 39.8262 28.0957C41.1387 26.6875 41.7949 25.0332 41.7949 23.1328C41.7949 21.1914 41.0908 19.5234 39.6826 18.1289C38.2744 16.7344 36.5928 16.0371 34.6377 16.0371H31.1104C30.8506 16.0371 30.7207 15.9072 30.7207 15.6475L30.5566 14.3555C30.3105 11.9902 29.2852 10.0078 27.4805 8.4082C25.6895 6.79492 23.6045 5.98828 21.2256 5.98828C18.8193 5.98828 16.7275 6.79492 14.9502 8.4082C13.1865 10.0078 12.1885 11.9902 11.9561 14.3555L11.792 15.6475C11.7236 15.8525 11.5596 15.9551 11.2998 15.9551L10.1924 16.0371C8.34668 16.2559 6.80859 17.0352 5.57812 18.375C4.34766 19.7012 3.73242 21.2871 3.73242 23.1328V23.2148C3.75977 23.2422 3.78027 23.2559 3.79395 23.2559C3.80762 25.1152 4.46387 26.7354 5.7627 28.1162C6.37793 28.7588 7.04785 29.2441 7.77246 29.5723V29.6133C8.59277 30.0371 9.49512 30.2832 10.4795 30.3516C10.7256 30.3516 10.8486 30.4746 10.8486 30.7207V33.6533C10.8486 33.8994 10.7256 34.0225 10.4795 34.0225C9.41309 33.9678 8.36719 33.7559 7.3418 33.3867C5.6875 32.8398 4.25195 31.9443 3.03516 30.7002C1.83203 29.4424 0.977539 27.9795 0.47168 26.3115C0.157227 25.2861 0 24.2402 0 23.1738ZM12.0381 38.8623C12.0381 38.7939 12.0518 38.6982 12.0791 38.5752C12.1064 38.4521 12.1201 38.3633 12.1201 38.3086L12.3252 37.0371C12.4756 36.5176 12.7764 36.1279 13.2275 35.8682C13.6787 35.6084 14.1709 35.5469 14.7041 35.6836C15.1963 35.834 15.5654 36.1348 15.8115 36.5859C16.0576 37.0371 16.1055 37.4951 15.9551 37.96L15.6475 39.2725C15.4287 40.2295 14.875 40.708 13.9863 40.708C13.918 40.708 13.8086 40.6943 13.6582 40.667C13.5215 40.6533 13.4326 40.6465 13.3916 40.6465C12.9404 40.5098 12.5986 40.2705 12.3662 39.9287C12.1475 39.5869 12.0381 39.2314 12.0381 38.8623ZM13.6582 32.4023C13.6582 31.8828 13.8291 31.4521 14.1709 31.1104C14.5127 30.7686 14.9434 30.5977 15.4629 30.5977C15.9824 30.5977 16.4131 30.7686 16.7549 31.1104C17.0967 31.4521 17.2676 31.8828 17.2676 32.4023C17.2676 32.9082 17.0967 33.332 16.7549 33.6738C16.4131 34.0156 15.9824 34.1865 15.4629 34.1865C14.957 34.1865 14.54 34.0088 14.2119 33.6533C13.8428 33.3115 13.6582 32.8945 13.6582 32.4023ZM17.2471 45.4863C17.2471 45.4043 17.2744 45.2402 17.3291 44.9941L17.6162 43.7021C17.7666 43.21 18.0674 42.8408 18.5186 42.5947C18.9697 42.3486 19.4277 42.3008 19.8926 42.4512C20.3984 42.5469 20.7812 42.8135 21.041 43.251C21.3008 43.6885 21.3623 44.1875 21.2256 44.748L20.9385 46.0195C20.7061 46.9219 20.125 47.373 19.1953 47.373C19.0859 47.373 18.9082 47.3457 18.6621 47.291C18.1836 47.1543 17.8281 46.9082 17.5957 46.5527C17.3633 46.2109 17.2471 45.8555 17.2471 45.4863ZM18.9697 39.1289C18.9697 38.623 19.1406 38.1992 19.4824 37.8574C19.8242 37.5293 20.2549 37.3652 20.7744 37.3652C21.2939 37.3652 21.7246 37.5293 22.0664 37.8574C22.4082 38.1992 22.5791 38.623 22.5791 39.1289C22.5791 39.6484 22.4082 40.0791 22.0664 40.4209C21.7246 40.7627 21.2939 40.9336 20.7744 40.9336C20.2822 40.9336 19.8584 40.7559 19.5029 40.4004C19.1475 40.0449 18.9697 39.6211 18.9697 39.1289ZM20.3232 34.166C20.3232 33.9609 20.3438 33.7695 20.3848 33.5918L20.877 31.623C21.0273 31.1035 21.3281 30.7139 21.7793 30.4541C22.2305 30.1943 22.6953 30.1328 23.1738 30.2695C23.6934 30.4199 24.0762 30.7139 24.3223 31.1514C24.582 31.5889 24.6367 32.0469 24.4863 32.5254L23.9121 34.4941C23.7344 35.0957 23.4336 35.5059 23.0098 35.7246C22.5859 35.9434 22.1211 35.9844 21.6152 35.8477C21.1777 35.7656 20.8428 35.5469 20.6104 35.1914C20.3916 34.8359 20.2959 34.4941 20.3232 34.166ZM26.373 38.8623C26.373 38.7939 26.3799 38.6914 26.3936 38.5547C26.4209 38.418 26.4346 38.3359 26.4346 38.3086L26.6396 37.0371C26.79 36.5176 27.0908 36.1279 27.542 35.8682C27.9932 35.6084 28.4854 35.5469 29.0186 35.6836C29.5107 35.834 29.8799 36.1348 30.126 36.5859C30.3857 37.0371 30.4404 37.4951 30.29 37.96L29.9824 39.2725C29.7637 40.2295 29.21 40.708 28.3213 40.708C28.2529 40.708 28.1436 40.6943 27.9932 40.667C27.8428 40.6533 27.7471 40.6465 27.7061 40.6465C27.2686 40.5098 26.9336 40.2705 26.7012 39.9287C26.4824 39.5869 26.373 39.2314 26.373 38.8623ZM27.9932 32.4023C27.9932 31.8828 28.1641 31.4521 28.5059 31.1104C28.8477 30.7686 29.2783 30.5977 29.7979 30.5977C30.3174 30.5977 30.748 30.7686 31.0898 31.1104C31.4316 31.4521 31.6025 31.8828 31.6025 32.4023C31.6025 32.9082 31.4316 33.332 31.0898 33.6738C30.748 34.0156 30.3174 34.1865 29.7979 34.1865C29.2783 34.1865 28.8545 34.0088 28.5264 33.6533C28.1709 33.3252 27.9932 32.9082 27.9932 32.4023ZM30.249 5.92676C32.0811 7.59473 33.3184 9.72754 33.9609 12.3252H34.6377C37.6592 12.3252 40.2227 13.3779 42.3281 15.4834C43.0117 14.2803 43.3535 12.9609 43.3535 11.5254C43.3535 9.37891 42.5947 7.56055 41.0771 6.07031C39.5732 4.56641 37.748 3.81445 35.6016 3.81445C33.4961 3.81445 31.7119 4.51855 30.249 5.92676Z" fill="white" fill-opacity="0.7"/>
</svg>
