<svg width="60" height="60" viewBox="0 0 60 60" fill="none" xmlns="http://www.w3.org/2000/svg">
<path d="M0 35.1299C0 37.5771 0.724609 39.7646 2.17383 41.6924C3.63672 43.6201 5.52344 44.9053 7.83398 45.5479L6.39844 49.2598C6.28906 49.5742 6.3916 49.7314 6.70605 49.7314H11.3613L8.24414 58.9395H8.87988L18.416 46.5527C18.498 46.457 18.5117 46.3545 18.457 46.2451C18.4023 46.1494 18.2998 46.1016 18.1494 46.1016H13.3506L18.8057 35.9297C18.9697 35.6152 18.8672 35.458 18.498 35.458H12.0176C11.8125 35.458 11.6416 35.5674 11.5049 35.7861L9.16699 42.082C7.59473 41.6855 6.2959 40.8447 5.27051 39.5596C4.24512 38.2607 3.73242 36.7842 3.73242 35.1299C3.73242 33.2842 4.34766 31.6914 5.57812 30.3516C6.80859 29.0117 8.34668 28.2324 10.1924 28.0137L11.2998 27.9521C11.5596 27.9521 11.7236 27.8496 11.792 27.6445L11.9561 26.3525C12.1885 23.9873 13.1865 22.0049 14.9502 20.4053C16.7275 18.792 18.8193 17.9854 21.2256 17.9854C23.6045 17.9854 25.6895 18.792 27.4805 20.4053C29.2852 22.0049 30.3105 23.9873 30.5566 26.3525L30.7207 27.6445C30.7207 27.8906 30.8506 28.0137 31.1104 28.0137H34.6377C36.5928 28.0137 38.2744 28.7178 39.6826 30.126C41.0908 31.5205 41.7949 33.1885 41.7949 35.1299C41.7949 37.0303 41.1387 38.6846 39.8262 40.0928C38.5273 41.4873 36.9414 42.2324 35.0684 42.3281C34.7812 42.3281 34.6377 42.458 34.6377 42.7178V45.6504C34.6377 45.8965 34.7812 46.0195 35.0684 46.0195C36.9961 45.9648 38.7598 45.4453 40.3594 44.4609C41.9727 43.4629 43.2441 42.1436 44.1738 40.5029C45.1035 38.8486 45.5684 37.0576 45.5684 35.1299C45.5684 33.5303 45.2539 32.0605 44.625 30.7207C46.293 28.6152 47.127 26.2158 47.127 23.5225C47.127 21.4443 46.6074 19.5234 45.5684 17.7598C44.543 15.9824 43.1416 14.5811 41.3643 13.5557C39.6006 12.5166 37.6797 11.9971 35.6016 11.9971C34.0293 11.9971 32.498 12.3252 31.0078 12.9814C29.5312 13.6377 28.2529 14.5469 27.1729 15.709C25.4092 14.7656 23.4268 14.2939 21.2256 14.2939C18.1221 14.2939 15.3672 15.2578 12.9609 17.1855C10.5684 19.0996 9.03711 21.5537 8.36719 24.5479C5.94727 25.1084 3.94434 26.3799 2.3584 28.3623C0.786133 30.3447 0 32.6006 0 35.1299ZM17.2471 57.4834C17.2471 57.8525 17.3633 58.208 17.5957 58.5498C17.8281 58.9053 18.1836 59.1514 18.6621 59.2881C18.8535 59.3291 19.0312 59.3496 19.1953 59.3496C20.1387 59.3496 20.7197 58.9053 20.9385 58.0166L21.2256 56.7246C21.3623 56.1641 21.3008 55.665 21.041 55.2275C20.7812 54.79 20.3984 54.5234 19.8926 54.4277C19.4277 54.2773 18.9697 54.3252 18.5186 54.5713C18.0674 54.8311 17.7666 55.207 17.6162 55.6992L17.3291 56.9912C17.2744 57.2373 17.2471 57.4014 17.2471 57.4834ZM18.416 8.24414C18.416 8.75 18.6006 9.1875 18.9697 9.55664L20.3848 10.9922C20.7266 11.334 21.1299 11.5254 21.5947 11.5664C22.0459 11.6348 22.4902 11.4707 22.9277 11.0742C23.3652 10.6777 23.584 10.2129 23.584 9.67969C23.584 9.17383 23.3994 8.73633 23.0303 8.36719L21.6562 6.93164C21.3008 6.57617 20.8633 6.39844 20.3438 6.39844C19.7969 6.39844 19.3389 6.57617 18.9697 6.93164C18.6006 7.28711 18.416 7.72461 18.416 8.24414ZM18.9697 51.126C18.9697 51.6182 19.1475 52.042 19.5029 52.3975C19.8584 52.7529 20.2822 52.9307 20.7744 52.9307C21.2939 52.9307 21.7246 52.7598 22.0664 52.418C22.4082 52.0762 22.5791 51.6455 22.5791 51.126C22.5791 50.6201 22.4082 50.1963 22.0664 49.8545C21.7246 49.5127 21.2939 49.3418 20.7744 49.3418C20.2549 49.3418 19.8242 49.5127 19.4824 49.8545C19.1406 50.1963 18.9697 50.6201 18.9697 51.126ZM20.3232 46.1631C20.2959 46.4912 20.3916 46.833 20.6104 47.1885C20.8428 47.5439 21.1777 47.7627 21.6152 47.8447C22.1211 47.9814 22.5859 47.9404 23.0098 47.7217C23.4336 47.5029 23.7344 47.0928 23.9121 46.4912L24.4863 44.5225C24.6367 44.0439 24.582 43.5859 24.3223 43.1484C24.0762 42.7109 23.6934 42.417 23.1738 42.2666C22.6953 42.1162 22.2305 42.1777 21.7793 42.4512C21.3281 42.7109 21.0273 43.0938 20.877 43.5996L20.3848 45.5684C20.3438 45.7461 20.3232 45.9443 20.3232 46.1631ZM26.373 50.8594C26.373 51.2285 26.4824 51.5771 26.7012 51.9053C26.9199 52.2471 27.2549 52.4863 27.7061 52.623C27.7744 52.623 27.877 52.6367 28.0137 52.6641C28.1504 52.6914 28.2529 52.7051 28.3213 52.7051C29.21 52.7051 29.7637 52.2266 29.9824 51.2695L30.29 49.957C30.4404 49.4922 30.3857 49.0342 30.126 48.583C29.8799 48.1318 29.5107 47.8311 29.0186 47.6807C28.4717 47.5439 27.9727 47.5986 27.5215 47.8447C27.084 48.1045 26.79 48.4941 26.6396 49.0137L26.4346 50.3057C26.4346 50.333 26.4209 50.415 26.3936 50.5518C26.3799 50.6885 26.373 50.791 26.373 50.8594ZM27.9932 44.3994C27.9932 44.9053 28.1709 45.3223 28.5264 45.6504C28.8545 46.0059 29.2783 46.1836 29.7979 46.1836C30.3174 46.1836 30.748 46.0127 31.0898 45.6709C31.4316 45.3291 31.6025 44.9053 31.6025 44.3994C31.6025 43.8799 31.4316 43.4492 31.0898 43.1074C30.748 42.7656 30.3174 42.5947 29.7979 42.5947C29.2783 42.5947 28.8477 42.7656 28.5059 43.1074C28.1641 43.4492 27.9932 43.8799 27.9932 44.3994ZM30.249 17.9238C31.7119 16.5156 33.4961 15.8115 35.6016 15.8115C37.748 15.8115 39.5732 16.5635 41.0771 18.0674C42.5947 19.5576 43.3535 21.376 43.3535 23.5225C43.3535 24.958 43.0117 26.2773 42.3281 27.4805C40.2227 25.375 37.6592 24.3223 34.6377 24.3223H33.9609C33.3184 21.7246 32.0811 19.5918 30.249 17.9238ZM33.7354 6.39844C33.7354 6.91797 33.9131 7.3623 34.2686 7.73145C34.6377 8.10059 35.082 8.28516 35.6016 8.28516C36.1211 8.28516 36.5518 8.10742 36.8936 7.75195C37.249 7.38281 37.4268 6.93164 37.4268 6.39844V1.88672C37.4268 1.35352 37.249 0.90918 36.8936 0.553711C36.5518 0.18457 36.1211 0 35.6016 0C35.082 0 34.6377 0.18457 34.2686 0.553711C33.9131 0.922852 33.7354 1.36719 33.7354 1.88672V6.39844ZM46.4502 10.0898C46.1084 10.4316 45.9375 10.8691 45.9375 11.4023C45.9375 11.9355 46.1084 12.373 46.4502 12.7148C46.751 13.0566 47.1475 13.248 47.6396 13.2891C48.1455 13.3164 48.6104 13.125 49.0342 12.7148L52.1924 9.55664C52.5752 9.20117 52.7666 8.76367 52.7666 8.24414C52.7666 7.72461 52.5752 7.28711 52.1924 6.93164C51.8369 6.54883 51.3994 6.35742 50.8799 6.35742C50.374 6.35742 49.9502 6.54883 49.6084 6.93164L46.4502 10.0898ZM47.6396 37.4678C47.6396 37.9736 47.8242 38.4111 48.1934 38.7803L49.6084 40.1543C50.0049 40.5234 50.4561 40.708 50.9619 40.708L51.0029 40.749C51.4814 40.749 51.8779 40.5508 52.1924 40.1543C52.5752 39.7988 52.7666 39.3613 52.7666 38.8418C52.7666 38.3359 52.5752 37.8916 52.1924 37.5088L50.8389 36.1553C50.4424 35.7588 49.998 35.5605 49.5059 35.5605C48.9863 35.5605 48.542 35.752 48.1729 36.1348C47.8174 36.5039 47.6396 36.9482 47.6396 37.4678ZM50.8389 23.5225C50.8389 24.0557 51.0303 24.4863 51.4131 24.8145C51.7549 25.1973 52.1924 25.3887 52.7256 25.3887H57.2373C57.7568 25.3887 58.2012 25.2109 58.5703 24.8555C58.9395 24.4863 59.124 24.042 59.124 23.5225C59.124 23.0029 58.9395 22.5723 58.5703 22.2305C58.2148 21.875 57.7705 21.6973 57.2373 21.6973H52.7256C52.1924 21.6973 51.7412 21.875 51.3721 22.2305C51.0166 22.5723 50.8389 23.0029 50.8389 23.5225Z" fill="white" fill-opacity="0.7"/>
</svg>
