<svg width="53" height="49" viewBox="0 0 53 49" fill="none" xmlns="http://www.w3.org/2000/svg">
<path d="M0 26.7422C0 27.3301 0.205078 27.8154 0.615234 28.1982C1.02539 28.5811 1.55176 28.7725 2.19434 28.7725H5.88574C6.47363 28.7725 6.97266 28.5811 7.38281 28.1982C7.80664 27.8018 8.01855 27.3164 8.01855 26.7422C8.01855 26.1133 7.81348 25.5938 7.40332 25.1836C6.99316 24.7734 6.4873 24.5684 5.88574 24.5684H2.19434C1.55176 24.5684 1.02539 24.7734 0.615234 25.1836C0.205078 25.5801 0 26.0996 0 26.7422ZM3.87598 40.2773C3.87598 42.3965 4.64844 44.2285 6.19336 45.7734C7.73828 47.332 9.57031 48.1113 11.6895 48.1113H26.7012C28.8203 48.1113 30.6318 47.3457 32.1357 45.8145C33.6533 44.2832 34.4121 42.4375 34.4121 40.2773C34.4121 39.2246 34.2617 38.3291 33.9609 37.5908C35.7793 36.4287 37.2148 34.8838 38.2676 32.9561C39.334 31.0146 39.8672 28.9434 39.8672 26.7422C39.8672 24.9648 39.5186 23.2695 38.8213 21.6562C38.124 20.0293 37.1875 18.6348 36.0117 17.4727C34.8496 16.2969 33.4551 15.3604 31.8281 14.6631C30.2148 13.9658 28.5264 13.6172 26.7627 13.6172C24.3701 13.6172 22.1621 14.2051 20.1387 15.3809C18.1289 16.5566 16.543 18.1494 15.3809 20.1592C14.2324 22.1689 13.6582 24.3633 13.6582 26.7422V27.4805C11.4707 28.7246 10.0283 30.543 9.33105 32.9355C7.67676 33.4551 6.35059 34.3779 5.35254 35.7041C4.36816 37.0303 3.87598 38.5547 3.87598 40.2773ZM7.28027 9.29004C7.28027 9.90527 7.47168 10.3975 7.85449 10.7666L11.3818 14.458C12.4072 15.2373 13.4326 15.2373 14.458 14.458C14.8682 14.0479 15.0732 13.5352 15.0732 12.9199C15.0732 12.332 14.8682 11.8193 14.458 11.3818L10.8486 7.79297C10.3838 7.36914 9.87793 7.15723 9.33105 7.15723C8.71582 7.15723 8.2168 7.3623 7.83398 7.77246C7.46484 8.18262 7.28027 8.68848 7.28027 9.29004ZM8.20312 40.2773C8.20312 39.3613 8.49707 38.5752 9.08496 37.9189C9.67285 37.2627 10.418 36.8936 11.3203 36.8115L12.6738 36.627C12.9609 36.627 13.1045 36.4629 13.1045 36.1348L13.3096 34.9043C13.46 33.6465 13.9932 32.5938 14.9092 31.7461C15.8252 30.8984 16.9053 30.4746 18.1494 30.4746C19.4209 30.4746 20.5215 30.8984 21.4512 31.7461C22.3945 32.5938 22.9414 33.6465 23.0918 34.9043L23.2764 36.3193C23.4131 36.6475 23.5908 36.8115 23.8096 36.8115H26.7012C27.6445 36.8115 28.458 37.1533 29.1416 37.8369C29.8389 38.5205 30.1875 39.334 30.1875 40.2773C30.1875 41.2617 29.8389 42.1025 29.1416 42.7998C28.458 43.4971 27.6445 43.8457 26.7012 43.8457H11.6895C10.7051 43.8457 9.87793 43.4971 9.20801 42.7998C8.53809 42.1025 8.20312 41.2617 8.20312 40.2773ZM17.8828 26.291C18.0332 23.8984 18.9561 21.8887 20.6514 20.2617C22.3467 18.6348 24.3838 17.8213 26.7627 17.8213C29.1963 17.8213 31.2676 18.6895 32.9766 20.4258C34.6855 22.1621 35.54 24.2676 35.54 26.7422C35.54 28.2734 35.1641 29.6953 34.4121 31.0078C33.6738 32.3066 32.6689 33.3594 31.3975 34.166C30.1123 33.0996 28.6289 32.5664 26.9473 32.5664C26.3047 30.6523 25.1836 29.1279 23.584 27.9932C21.9844 26.8584 20.1729 26.291 18.1494 26.291H17.8828ZM24.6299 7.15723C24.6299 7.75879 24.835 8.27148 25.2451 8.69531C25.6689 9.10547 26.1748 9.31055 26.7627 9.31055C27.3643 9.31055 27.8701 9.10547 28.2803 8.69531C28.7041 8.27148 28.916 7.75879 28.916 7.15723V2.03027C28.916 1.45605 28.7041 0.977539 28.2803 0.594727C27.8701 0.198242 27.3643 0 26.7627 0C26.1748 0 25.6689 0.198242 25.2451 0.594727C24.835 0.977539 24.6299 1.45605 24.6299 2.03027V7.15723ZM39.0264 38.9854C38.6436 39.3818 38.4521 39.874 38.4521 40.4619C38.4521 41.0498 38.6504 41.5625 39.0469 42L42.6357 45.5479C43.5518 46.4775 44.5771 46.4775 45.7119 45.5479C46.0947 45.1787 46.2861 44.6865 46.2861 44.0713C46.2861 43.4834 46.0947 42.998 45.7119 42.6152L42.0205 38.9443C41.624 38.5752 41.125 38.3906 40.5234 38.3906C39.9219 38.3906 39.4229 38.5889 39.0264 38.9854ZM38.4521 12.8789C38.4521 13.4941 38.6504 14.0205 39.0469 14.458C39.4434 14.8545 39.9355 15.0527 40.5234 15.0527C41.125 15.0527 41.624 14.8545 42.0205 14.458L45.7119 10.7666C46.0947 10.3975 46.2861 9.90527 46.2861 9.29004C46.2861 8.68848 46.0742 8.18262 45.6504 7.77246C45.2402 7.3623 44.7344 7.15723 44.1328 7.15723C43.5586 7.15723 43.0596 7.36914 42.6357 7.79297L39.0469 11.3818C38.6504 11.7783 38.4521 12.2773 38.4521 12.8789ZM44.1123 26.7422C44.1123 27.3301 44.3174 27.8154 44.7275 28.1982C45.1377 28.5811 45.6641 28.7725 46.3066 28.7725H49.998C50.5859 28.7725 51.085 28.5811 51.4951 28.1982C51.9189 27.8018 52.1309 27.3164 52.1309 26.7422C52.1309 26.1133 51.9258 25.5938 51.5156 25.1836C51.1055 24.7734 50.5996 24.5684 49.998 24.5684H46.3066C45.6641 24.5684 45.1377 24.7734 44.7275 25.1836C44.3174 25.5801 44.1123 26.0996 44.1123 26.7422Z" fill="white" fill-opacity="0.7"/>
</svg>
