<svg width="47" height="47" viewBox="0 0 47 47" fill="none" xmlns="http://www.w3.org/2000/svg">
<path d="M0 23.2354C0 22.7021 0.18457 22.251 0.553711 21.8818C0.936523 21.5264 1.37402 21.3486 1.86621 21.3486H6.33691C6.84277 21.3486 7.25977 21.5332 7.58789 21.9023C7.92969 22.2715 8.10059 22.7158 8.10059 23.2354C8.10059 23.7549 7.92969 24.1992 7.58789 24.5684C7.25977 24.9238 6.84277 25.1016 6.33691 25.1016H1.86621C1.36035 25.1016 0.922852 24.917 0.553711 24.5479C0.18457 24.1787 0 23.7412 0 23.2354ZM6.25488 38.3906C6.25488 37.8848 6.42578 37.4404 6.76758 37.0576L9.9873 33.9404C10.3154 33.5986 10.7461 33.4277 11.2793 33.4277C11.7988 33.4277 12.2295 33.5918 12.5713 33.9199C12.9268 34.248 13.1045 34.665 13.1045 35.1709C13.1045 35.7041 12.9268 36.1689 12.5713 36.5654L9.4541 39.6826C8.56543 40.3799 7.66992 40.3799 6.76758 39.6826C6.42578 39.3135 6.25488 38.8828 6.25488 38.3906ZM6.25488 8.10059C6.25488 7.59473 6.42578 7.15039 6.76758 6.76758C7.19141 6.41211 7.65625 6.23438 8.16211 6.23438C8.64062 6.23438 9.07129 6.41211 9.4541 6.76758L12.5713 9.9873C12.9268 10.3154 13.1045 10.7461 13.1045 11.2793C13.1045 11.7988 12.9268 12.2363 12.5713 12.5918C12.2295 12.9336 11.7988 13.1045 11.2793 13.1045C10.7461 13.1045 10.3154 12.9268 9.9873 12.5713L6.76758 9.4541C6.42578 9.08496 6.25488 8.63379 6.25488 8.10059ZM11.833 23.2354C11.833 21.1982 12.3457 19.3047 13.3711 17.5547C14.3965 15.791 15.7842 14.3965 17.5342 13.3711C19.2979 12.3457 21.1982 11.833 23.2354 11.833C24.7666 11.833 26.2363 12.1406 27.6445 12.7559C29.0527 13.3574 30.2627 14.1709 31.2744 15.1963C32.2998 16.208 33.1133 17.418 33.7148 18.8262C34.3164 20.2344 34.6172 21.7041 34.6172 23.2354C34.6172 25.2861 34.1045 27.1865 33.0791 28.9365C32.0674 30.6865 30.6865 32.0742 28.9365 33.0996C27.1865 34.1113 25.2861 34.6172 23.2354 34.6172C21.1846 34.6172 19.2842 34.1113 17.5342 33.0996C15.7842 32.0742 14.3965 30.6865 13.3711 28.9365C12.3457 27.1865 11.833 25.2861 11.833 23.2354ZM15.5449 23.2354C15.5449 25.3682 16.29 27.1934 17.7803 28.7109C19.2842 30.2148 21.1025 30.9668 23.2354 30.9668C25.3682 30.9668 27.1865 30.2148 28.6904 28.7109C30.208 27.1934 30.9668 25.3682 30.9668 23.2354C30.9668 21.1299 30.208 19.332 28.6904 17.8418C27.1865 16.3516 25.3682 15.6064 23.2354 15.6064C21.1162 15.6064 19.3047 16.3516 17.8008 17.8418C16.2969 19.332 15.5449 21.1299 15.5449 23.2354ZM21.3691 40.2363C21.3691 39.7168 21.5469 39.2793 21.9023 38.9238C22.2715 38.5684 22.7158 38.3906 23.2354 38.3906C23.7686 38.3906 24.2129 38.5684 24.5684 38.9238C24.9238 39.2793 25.1016 39.7168 25.1016 40.2363V44.584C25.1016 45.1172 24.917 45.5684 24.5479 45.9375C24.1924 46.3066 23.7549 46.4912 23.2354 46.4912C22.7158 46.4912 22.2715 46.3066 21.9023 45.9375C21.5469 45.5684 21.3691 45.1172 21.3691 44.584V40.2363ZM21.3691 6.33691V1.86621C21.3691 1.36035 21.5537 0.922852 21.9229 0.553711C22.292 0.18457 22.7295 0 23.2354 0C23.7412 0 24.1787 0.18457 24.5479 0.553711C24.917 0.922852 25.1016 1.36035 25.1016 1.86621V6.33691C25.1016 6.84277 24.917 7.2666 24.5479 7.6084C24.1924 7.93652 23.7549 8.10059 23.2354 8.10059C22.7158 8.10059 22.2715 7.93652 21.9023 7.6084C21.5469 7.2666 21.3691 6.84277 21.3691 6.33691ZM33.4482 35.1709C33.4482 34.665 33.6123 34.2549 33.9404 33.9404C34.2686 33.5986 34.6787 33.4277 35.1709 33.4277C35.7041 33.4277 36.1416 33.5986 36.4834 33.9404L39.6826 37.0576C40.0381 37.4404 40.2158 37.8848 40.2158 38.3906C40.2158 38.8965 40.0381 39.3271 39.6826 39.6826C38.8076 40.3662 37.9326 40.3662 37.0576 39.6826L33.9404 36.5654C33.6123 36.1963 33.4482 35.7314 33.4482 35.1709ZM33.4482 11.2793C33.4482 10.7324 33.6123 10.3018 33.9404 9.9873L37.0576 6.76758C37.4404 6.41211 37.8711 6.23438 38.3496 6.23438C38.8691 6.23438 39.3066 6.41895 39.6621 6.78809C40.0312 7.15723 40.2158 7.59473 40.2158 8.10059C40.2158 8.64746 40.0381 9.09863 39.6826 9.4541L36.4834 12.5713C36.0869 12.9268 35.6494 13.1045 35.1709 13.1045C34.6787 13.1045 34.2686 12.9336 33.9404 12.5918C33.6123 12.2363 33.4482 11.7988 33.4482 11.2793ZM38.9033 24.5684C38.5615 24.1992 38.3906 23.7549 38.3906 23.2354C38.3906 22.7158 38.5684 22.2646 38.9238 21.8818C39.2793 21.5264 39.6963 21.3486 40.1748 21.3486H44.6045C45.1104 21.3486 45.5479 21.54 45.917 21.9229C46.2998 22.292 46.4912 22.7295 46.4912 23.2354C46.4912 23.7412 46.2998 24.1787 45.917 24.5479C45.5479 24.917 45.1104 25.1016 44.6045 25.1016H40.1748C39.6689 25.1016 39.2451 24.9238 38.9033 24.5684Z" fill="white" fill-opacity="0.7"/>
</svg>
