<svg width="31" height="32" viewBox="0 0 31 32" fill="none" xmlns="http://www.w3.org/2000/svg">
<path d="M0 15.5244C0 13.4326 0.410156 11.4297 1.23047 9.51562C2.05078 7.60156 3.15137 5.9541 4.53223 4.57324C5.92676 3.17871 7.58105 2.07129 9.49512 1.25098C11.4229 0.416992 13.4326 0 15.5244 0H18.0264C18.3682 0.0957031 18.5391 0.300781 18.5391 0.615234L18.6416 2.54297C18.7236 5.31836 19.7217 7.68359 21.6357 9.63867C23.5498 11.5938 25.874 12.626 28.6084 12.7354L30.4131 12.8789C30.7686 12.8789 30.9463 13.0498 30.9463 13.3916V15.5244C30.96 18.3271 30.2764 20.9248 28.8955 23.3174C27.5283 25.6963 25.6553 27.583 23.2764 28.9775C20.9111 30.3584 18.3271 31.0488 15.5244 31.0488C13.3916 31.0488 11.3613 30.6387 9.43359 29.8184C7.51953 28.998 5.87207 27.8975 4.49121 26.5166C3.12402 25.1221 2.03027 23.4678 1.20996 21.5537C0.40332 19.6396 0 17.6299 0 15.5244ZM3.99902 15.5244C3.99902 17.1924 4.32715 18.7646 4.9834 20.2412C5.65332 21.7178 6.52148 22.9551 7.58789 23.9531C8.66797 24.9512 9.89844 25.7441 11.2793 26.332C12.6738 26.9062 14.0889 27.1934 15.5244 27.1934C16.7959 27.1934 18.0742 26.9473 19.3594 26.4551C20.6582 25.9492 21.8613 25.252 22.9688 24.3633C24.0762 23.4609 25.0264 22.3125 25.8193 20.918C26.626 19.5234 27.1455 17.999 27.3779 16.3447C23.8096 15.6064 20.9453 14.082 18.7852 11.7715C16.6387 9.44727 15.4014 6.71973 15.0732 3.58887C13.0088 3.69824 11.1152 4.33398 9.39258 5.49609C7.68359 6.6582 6.35742 8.13477 5.41406 9.92578C4.4707 11.7031 3.99902 13.5693 3.99902 15.5244Z" fill="white" fill-opacity="0.7"/>
</svg>
